<svg xmlns="http://www.w3.org/2000/svg" viewBox="0 0 1600 900" width="1600" height="900">
  <defs>
    <linearGradient id="bg" x1="0" y1="0" x2="1" y2="1">
      <stop offset="0" stop-color="#09090B"/>
      <stop offset="1" stop-color="#1E293B"/>
    </linearGradient>
  </defs>
  <rect width="1600" height="900" fill="url(#bg)"/>
  <rect x="260" y="150" width="1080" height="600" rx="24" fill="#18181B" stroke="#3F3F46" stroke-width="2"/>
  <path d="M260 210 H1340" stroke="#27272A" stroke-width="2"/>
  <circle cx="302" cy="180" r="9" fill="#52525B"/>
  <circle cx="334" cy="180" r="9" fill="#52525B"/>
  <circle cx="366" cy="180" r="9" fill="#52525B"/>
  <rect x="320" y="250" width="300" height="220" rx="12" fill="#1E3A8A"/>
  <rect x="650" y="250" width="300" height="220" rx="12" fill="#334155"/>
  <rect x="980" y="250" width="300" height="220" rx="12" fill="#2563EB"/>
  <rect x="320" y="500" width="300" height="210" rx="12" fill="#3F3F46"/>
  <rect x="650" y="500" width="300" height="210" rx="12" fill="#1D4ED8"/>
  <rect x="980" y="500" width="300" height="210" rx="12" fill="#27272A"/>
  <path d="M340 450 L420 370 L480 420 L540 350 L600 450 Z" fill="#FFFFFF" fill-opacity="0.18"/>
  <circle cx="570" cy="300" r="18" fill="#FFFFFF" fill-opacity="0.3"/>
</svg>
